<svg width="34" height="35" viewBox="0 0 34 35" fill="none" xmlns="http://www.w3.org/2000/svg">
<path d="M16.0018 10.875H16.0206M21.6268 29.625L25.3768 33.375L32.8768 25.875M10.6973 22.125C11.4695 19.9403 13.553 18.375 16.0022 18.375C18.4514 18.375 20.5349 19.9403 21.3071 22.125M31 18.375V7.5C31 5.3998 31 4.3497 30.5913 3.54754C30.2317 2.84193 29.6581 2.26825 28.9525 1.90873C28.1503 1.5 27.1002 1.5 25 1.5H7C4.8998 1.5 3.8497 1.5 3.04754 1.90873C2.34193 2.26825 1.76825 2.84193 1.40873 3.54754C1 4.3497 1 5.3998 1 7.5V25.5C1 27.6002 1 28.6503 1.40873 29.4525C1.76825 30.1581 2.34193 30.7317 3.04754 31.0913C3.8497 31.5 4.8998 31.5 7 31.5H14.1268M17.8768 10.875C17.8768 11.9105 17.0374 12.75 16.0018 12.75C14.9663 12.75 14.1268 11.9105 14.1268 10.875C14.1268 9.83947 14.9663 9 16.0018 9C17.0374 9 17.8768 9.83947 17.8768 10.875Z" stroke="#E3B66E" stroke-width="2" stroke-linecap="round" stroke-linejoin="round"/>
</svg>
