<svg width="36" height="37" viewBox="0 0 36 37" fill="none" xmlns="http://www.w3.org/2000/svg">
<path d="M5.8125 11C8.40133 11 10.5 8.90133 10.5 6.3125C10.5 3.72367 8.40133 1.625 5.8125 1.625C3.22367 1.625 1.125 3.72367 1.125 6.3125C1.125 8.90133 3.22367 11 5.8125 11ZM5.8125 11V26M5.8125 26C3.22367 26 1.125 28.0987 1.125 30.6875C1.125 33.2763 3.22367 35.375 5.8125 35.375C8.40133 35.375 10.5 33.2763 10.5 30.6875C10.5 28.0987 8.40133 26 5.8125 26ZM30.1875 26V12.3125C30.1875 10.2123 30.1875 9.1622 29.7788 8.36004C29.4192 7.65443 28.8456 7.08075 28.14 6.72123C27.3378 6.3125 26.2877 6.3125 24.1875 6.3125H18M30.1875 26C32.7763 26 34.875 28.0987 34.875 30.6875C34.875 33.2763 32.7763 35.375 30.1875 35.375C27.5987 35.375 25.5 33.2763 25.5 30.6875C25.5 28.0987 27.5987 26 30.1875 26ZM18 6.3125L22.6875 11M18 6.3125L22.6875 1.625" stroke="#00A47B" stroke-width="2" stroke-linecap="round" stroke-linejoin="round"/>
</svg>
